<?xml version="1.0" standalone="no"?>
<!DOCTYPE svg PUBLIC "-//W3C//DTD SVG 20010904//EN"
 "http://www.w3.org/TR/2001/REC-SVG-20010904/DTD/svg10.dtd">
<svg version="1.0" xmlns="http://www.w3.org/2000/svg"
 width="154.000000pt" height="152.000000pt" viewBox="0 0 154.000000 152.000000"
 preserveAspectRatio="xMidYMid meet">

<g transform="translate(0.000000,152.000000) scale(0.100000,-0.100000)"
fill="#000000" stroke="none">
<path d="M495 1125 c-154 -118 -284 -220 -288 -227 -4 -8 38 -158 102 -363
l109 -350 363 0 362 0 18 55 c45 143 199 646 199 652 0 6 -67 60 -300 237
-195 149 -277 211 -281 211 -2 -1 -130 -97 -284 -215z m316 86 l24 -19 -27
-11 c-20 -7 -36 -7 -55 0 l-28 10 25 19 c31 24 33 24 61 1z m-123 -80 c11 -6
8 -16 -12 -46 -49 -72 -48 -165 3 -247 35 -56 34 -69 -3 -44 -83 54 -139 129
-151 202 l-6 41 68 51 c71 54 79 57 101 43z m232 -10 c47 -25 80 -89 80 -156
0 -55 -34 -137 -70 -170 -19 -17 -21 -17 -60 10 -22 15 -40 29 -40 32 0 2 12
22 28 45 23 35 27 52 27 112 0 58 -4 77 -22 103 -13 17 -23 34 -23 37 0 13 47
5 80 -13z m-144 -76 c16 -40 19 -131 4 -140 -25 -15 -56 145 -33 168 11 11 13
9 29 -28z m411 -120 c40 -31 73 -60 73 -65 0 -5 -13 -51 -29 -102 -16 -51 -39
-125 -51 -165 -23 -81 -35 -95 -44 -55 -9 41 -70 117 -136 168 l-59 46 69 67
c55 53 72 76 82 114 7 26 14 47 17 47 2 0 37 -25 78 -55z m-757 8 c0 -42 53
-125 109 -173 l51 -42 -62 -47 c-34 -25 -77 -65 -94 -89 -18 -23 -35 -39 -37
-35 -3 5 -26 77 -52 161 -34 113 -44 157 -36 165 21 21 106 85 114 86 4 1 7
-11 7 -26z m347 -198 c36 -32 17 -32 -22 0 -16 14 -25 25 -18 25 7 0 25 -11
40 -25z m-114 -70 l28 -25 -35 -42 c-72 -84 -85 -203 -31 -293 l26 -45 -25 0
c-31 0 -95 54 -112 95 -41 99 -21 207 53 286 25 27 51 49 57 49 6 0 24 -12 39
-25z m257 -42 c119 -110 147 -204 94 -311 l-26 -52 -57 0 -58 0 34 66 c58 116
41 220 -54 324 -59 66 -13 47 67 -27z m-140 -75 c53 -73 62 -147 26 -232 l-16
-39 -30 28 c-16 16 -35 44 -41 63 -23 70 -8 222 22 222 5 0 22 -19 39 -42z"/>
<path d="M988 143 c7 -3 16 -2 19 1 4 3 -2 6 -13 5 -11 0 -14 -3 -6 -6z"/>
<path d="M1078 143 c7 -3 16 -2 19 1 4 3 -2 6 -13 5 -11 0 -14 -3 -6 -6z"/>
</g>
</svg>
